<svg class="h-6 w-6" fill="currentColor" viewBox="0 0 24 24" xmlns="http://www.w3.org/2000/svg"><path d="M24 4.557a9.83 9.83 0 01-2.828.775 4.932 4.932 0 002.165-2.724c-.951.555-2.005.959-3.127 1.184A4.916 4.916 0 0016.616 3c-2.73 0-4.938 2.21-4.938 4.938 0 .39.045.765.128 1.124C7.728 8.868 4.1 6.884 1.671 3.149a4.822 4.822 0 00-.666 2.475c0 1.71.87 3.213 2.188 4.096a4.904 4.904 0 01-2.236-.616c-.054 1.985 1.389 3.845 3.448 4.257a4.935 4.935 0 01-2.228.084c.63 1.957 2.445 3.377 4.6 3.417A9.868 9.868 0 010 21.544a13.94 13.94 0 007.548 2.209c9.057 0 14.009-7.496 14.009-13.986 0-.213-.005-.425-.014-.636A10.025 10.025 0 0024 4.557z"></path></svg>