<svg class="h-6 w-6" fill="currentColor" viewBox="0 0 24 24" xmlns="http://www.w3.org/2000/svg"><path d="M20.447 20.452h-3.554v-5.569c0-1.327-.024-3.036-1.849-3.036-1.85 0-2.134 1.445-2.134 2.939v5.666h-3.554V9h3.414v1.561h.049c.476-.9 1.637-1.85 3.368-1.85 3.599 0 4.265 2.369 4.265 5.455v6.286zm-14.447-11.71c-1.144 0-2.069-.925-2.069-2.069 0-1.144.925-2.069 2.069-2.069 1.144 0 2.069.925 2.069 2.069 0 1.144-.925 2.069-2.069 2.069zm1.777 11.71H4.447V9h3.554v11.452zM22.225 0H1.771C.792 0 0 .77 0 1.727v20.545C0 23.23.792 24 1.771 24h20.451C23.2 24 24 23.23 24 22.273V1.727C24 .77 23.2 0 22.225 0z"></path></svg>